<?xml version="1.0" standalone="no"?>
<!DOCTYPE svg PUBLIC "-//W3C//DTD SVG 20010904//EN"
 "http://www.w3.org/TR/2001/REC-SVG-20010904/DTD/svg10.dtd">
<svg version="1.0" xmlns="http://www.w3.org/2000/svg"
 width="1449.000000pt" height="472.000000pt" viewBox="0 0 1449.000000 472.000000"
 preserveAspectRatio="xMidYMid meet">
<metadata>
Created by potrace 1.15, written by Peter Selinger 2001-2017
</metadata>
<g transform="translate(0.000000,472.000000) scale(0.100000,-0.100000)"
fill="#000000" stroke="none">
<path d="M80 2360 l0 -2280 2705 0 2705 0 0 2280 0 2280 -2705 0 -2705 0 0
-2280z m3749 2076 c-2 -2 -58 -26 -124 -54 -1208 -506 -2342 -1365 -3308
-2505 l-117 -137 0 1350 0 1350 1777 0 c977 0 1774 -2 1772 -4z m1461 -2166
l0 -1990 -1699 0 -1699 0 35 113 c341 1093 1088 2131 2198 3051 165 137 507
394 694 521 160 109 452 295 464 295 4 0 7 -895 7 -1990z m-910 1850 l-185
-110 -135 0 -135 0 35 21 c19 12 109 62 200 110 l165 88 120 1 120 0 -185
-110z m-405 -289 c-6 -5 -93 -62 -195 -126 -102 -64 -207 -132 -233 -151 l-48
-35 -156 3 -157 3 45 30 c24 16 139 87 254 157 l210 127 145 1 c88 0 140 -4
135 -9z m-937 -690 c-209 -167 -313 -254 -470 -393 l-65 -58 -164 0 -164 1 65
60 c100 93 327 282 520 432 l175 137 163 0 163 0 -223 -179z m-889 -828 c-243
-251 -425 -459 -586 -670 l-86 -113 -174 0 -174 0 77 98 c157 198 254 308 538
609 l191 203 169 0 169 0 -124 -127z m-849 -1059 c0 -3 -34 -62 -76 -132 -136
-229 -264 -494 -349 -722 l-43 -115 -226 -3 c-124 -1 -226 1 -226 4 0 4 42 90
94 190 102 198 254 456 388 657 l83 127 178 0 c97 0 177 -2 177 -6z"/>
<path d="M3445 2249 c-158 -23 -285 -101 -368 -226 -58 -87 -86 -171 -94 -282
-11 -160 31 -285 125 -373 59 -55 114 -84 242 -128 186 -64 230 -98 230 -179
0 -176 -247 -187 -408 -17 l-51 53 -112 -145 c-61 -79 -114 -152 -116 -162 -7
-26 115 -132 200 -174 105 -51 210 -76 327 -76 285 0 481 143 546 399 12 47
15 97 12 185 -3 114 -5 126 -36 189 -63 127 -169 205 -362 265 -167 52 -210
83 -210 154 0 79 49 126 142 134 63 6 684 -9 691 -16 3 -3 -1 -246 -9 -540 -7
-294 -15 -588 -16 -653 l-3 -117 203 0 202 0 0 83 c0 45 7 321 15 612 8 292
15 551 15 578 l0 47 183 0 184 0 6 143 c4 78 7 168 7 200 l0 57 -742 -1 c-409
-1 -770 -5 -803 -10z"/>
<path d="M6895 4373 c-11 -3 -27 -14 -36 -24 -9 -10 -20 -15 -24 -11 -5 4 -5
2 -1 -5 8 -15 -3 -63 -15 -63 -5 0 -6 7 -3 15 5 11 2 13 -10 9 -17 -6 -18 -10
-18 -89 l0 -50 -8 45 -8 45 1 -60 c0 -33 4 -65 9 -72 5 -7 7 -17 4 -22 -8 -12
14 -27 23 -15 12 17 40 12 36 -7 -2 -10 3 -23 11 -30 10 -8 11 -15 4 -24 -13
-15 -7 -20 35 -29 22 -5 26 -4 15 4 -20 13 -7 13 24 -1 14 -7 33 -8 43 -4 10
4 24 9 31 11 7 1 20 8 28 15 13 10 12 13 -7 23 -12 6 -26 22 -31 36 -8 23 -7
23 16 -5 13 -16 27 -28 30 -25 8 9 -44 61 -55 55 -22 -14 -1 -65 31 -78 12 -4
12 -6 -2 -6 -18 -1 -61 52 -51 63 6 5 -35 10 -62 7 -6 0 -16 13 -22 29 -6 17
-18 30 -27 30 -9 0 -16 4 -16 10 0 5 6 8 13 6 6 -1 9 -1 5 1 -5 3 -8 9 -8 14
0 6 5 7 11 3 7 -4 10 -1 7 7 -3 8 -1 22 3 31 6 10 5 19 -1 23 -5 3 -10 -1 -10
-9 0 -18 -16 -21 -25 -6 -12 20 -26 10 -15 -10 6 -11 7 -20 2 -20 -6 0 -12
-11 -14 -25 -3 -14 -1 -25 3 -25 5 0 9 7 9 15 0 32 15 13 16 -20 0 -19 -3 -35
-8 -35 -4 0 -8 7 -8 15 0 8 -7 15 -16 15 -13 0 -15 6 -9 28 5 15 8 36 9 48 1
11 9 28 18 37 9 10 20 26 23 37 3 11 13 20 21 20 12 0 12 4 4 20 -9 17 -8 19
7 13 10 -3 28 -18 41 -32 13 -14 21 -20 17 -13 -3 6 -1 12 5 12 6 0 8 5 5 10
-3 6 -1 10 4 10 6 0 11 -4 11 -10 0 -5 5 -10 11 -10 5 0 7 6 3 13 -4 6 2 3 14
-7 12 -11 22 -24 22 -30 0 -6 -6 -4 -13 4 -13 17 -47 23 -47 9 0 -5 8 -9 17
-9 9 0 26 -8 37 -17 12 -10 18 -14 13 -9 -4 5 3 20 15 33 12 13 16 23 10 23
-7 0 -12 11 -12 25 0 15 -8 29 -21 36 -15 8 -19 8 -15 0 9 -14 -7 -14 -21 0
-8 8 -13 8 -17 0 -4 -6 -15 -11 -24 -11 -15 0 -15 2 -2 10 13 9 13 10 0 9 -8
-1 -24 -4 -35 -6z"/>
<path d="M6480 4360 c0 -6 33 -10 80 -10 64 0 82 -3 87 -16 3 -8 1 -20 -5 -26
-8 -8 -9 -5 -5 11 5 20 2 21 -76 21 l-81 0 -1 -132 c-2 -151 -2 -187 0 -206 1
-11 25 -13 114 -10 l112 3 3 42 3 42 -73 3 -72 3 -1 36 c-1 27 2 36 12 32 7
-3 13 0 13 6 0 7 12 22 27 35 17 15 22 25 15 30 -6 3 -16 -3 -22 -14 -6 -11
-16 -20 -22 -20 -9 0 -9 3 0 12 7 7 12 17 12 22 0 6 -5 5 -12 -2 -20 -20 -24
-14 -24 41 1 51 2 53 27 53 18 0 25 -4 22 -13 -6 -15 15 -17 37 -3 9 6 19 5
28 -2 19 -16 35 11 19 31 -10 12 -9 13 2 7 9 -6 12 -5 9 5 -3 8 -17 13 -32 12
-14 -1 -26 2 -26 8 0 5 -38 9 -85 9 -50 0 -85 -4 -85 -10z"/>
<path d="M7120 4361 c0 -6 37 -12 83 -14 l82 -3 -82 -2 -83 -2 -2 -125 c0 -69
-2 -143 -3 -165 -2 -53 5 -62 51 -58 l39 3 0 120 c0 66 4 126 8 133 5 7 3 12
-5 12 -9 0 -9 3 2 10 10 6 11 10 3 10 -7 0 -13 5 -13 11 0 5 5 7 12 3 7 -5 9
-2 5 9 -4 11 -2 14 8 10 8 -3 12 -9 9 -14 -9 -16 8 -10 21 7 9 14 16 14 33 5
24 -13 29 -2 10 18 -11 10 -9 15 5 26 15 11 3 13 -83 14 -60 1 -100 -2 -100
-8z"/>
<path d="M7440 4360 c0 -6 35 -10 85 -10 78 0 85 -2 85 -20 0 -11 -4 -20 -10
-20 -5 0 -7 7 -4 15 5 13 -7 15 -75 15 l-81 0 -2 -72 c-1 -40 -2 -119 -3 -176
l-1 -103 116 3 115 3 3 42 3 42 -73 3 -72 3 -1 36 c-1 27 2 36 12 32 7 -3 13
0 13 6 0 7 12 22 27 35 17 15 22 25 15 30 -6 3 -16 -3 -22 -14 -6 -11 -16 -20
-22 -20 -9 0 -9 3 0 12 7 7 12 17 12 22 0 6 -5 5 -12 -2 -20 -20 -23 -14 -23
38 0 47 8 65 17 38 3 -7 9 -8 18 -3 18 11 62 11 79 1 8 -5 17 -3 22 5 9 16 -8
30 -28 22 -7 -3 -13 0 -13 7 0 8 9 11 25 7 16 -3 24 0 22 7 -2 6 -15 11 -30
11 -14 0 -29 3 -33 8 -11 11 -164 9 -164 -3z"/>
<path d="M7715 4349 c-7 -20 16 -48 39 -49 5 0 6 -3 3 -6 -4 -4 -13 -1 -22 6
-12 10 -15 9 -15 -5 0 -15 7 -17 38 -13 42 6 78 -12 69 -34 -4 -11 -6 -11 -6
0 -1 10 -5 10 -16 -2 -13 -12 -15 -38 -13 -133 3 -114 4 -118 26 -119 12 -1
22 3 22 9 0 5 6 5 14 -2 20 -16 29 12 14 44 -9 19 -14 22 -20 13 -7 -10 -9 -9
-5 2 2 8 9 16 15 16 7 1 17 2 22 3 6 0 10 36 10 84 0 81 -1 83 -27 95 -16 6
-19 9 -7 6 13 -3 24 1 27 10 5 11 -1 13 -27 9 -22 -3 -38 0 -49 11 -10 10 -18
12 -22 6 -9 -15 -38 17 -32 35 4 8 -1 15 -10 17 -9 2 32 3 93 3 60 0 112 -4
116 -10 9 -13 22 1 13 14 -4 7 -52 11 -125 11 -111 0 -119 -1 -125 -21z"/>
<path d="M8114 4362 c-11 -7 -27 -40 -29 -57 0 -5 -4 -16 -8 -22 -5 -7 -5 -13
-1 -13 4 0 -1 -9 -11 -20 -10 -11 -15 -20 -11 -20 3 0 -1 -11 -10 -25 -15 -23
-15 -25 0 -25 10 0 14 5 11 10 -3 6 -1 10 5 10 6 0 9 4 6 8 -3 5 1 9 9 9 8 0
15 -4 15 -9 0 -4 -5 -8 -11 -8 -5 0 -8 -4 -5 -9 3 -5 -9 -14 -27 -20 -18 -7
-27 -15 -21 -19 19 -12 34 -71 21 -78 -7 -4 -9 -4 -5 0 8 10 -12 69 -21 61 -3
-4 -6 -10 -7 -13 -1 -11 -15 -45 -25 -64 -7 -13 -5 -16 6 -12 8 4 15 1 15 -5
0 -6 -4 -11 -9 -11 -18 0 -4 -33 15 -36 27 -5 55 6 48 17 -3 6 0 17 7 25 9 11
10 17 2 22 -6 4 16 6 48 5 43 -1 59 2 56 10 -2 7 -23 12 -49 12 -26 0 -44 3
-41 8 2 4 10 7 16 5 14 -2 87 24 87 32 0 3 -11 6 -25 6 -16 1 -22 -2 -18 -10
5 -8 3 -8 -8 1 -8 6 -18 11 -23 10 -5 -1 -13 10 -17 25 -5 18 -3 26 5 24 6 -2
8 -1 4 1 -16 9 -8 43 10 43 14 0 15 -2 2 -10 -10 -7 -11 -10 -2 -10 7 0 17 12
23 27 8 21 12 24 19 13 5 -8 6 -18 4 -22 -3 -4 0 -8 6 -8 7 0 9 -8 5 -19 -3
-11 -1 -22 5 -26 6 -3 8 -10 5 -15 -3 -5 -1 -11 5 -15 5 -3 10 -14 10 -25 0
-13 -5 -17 -19 -13 -10 3 -22 0 -25 -6 -4 -7 -1 -9 8 -5 9 3 17 -2 21 -15 3
-11 9 -20 13 -20 23 4 39 -3 39 -16 0 -11 -4 -12 -14 -4 -9 9 -13 8 -13 0 0
-6 10 -16 23 -21 18 -7 18 -9 4 -9 -10 -1 -15 -5 -12 -11 3 -5 30 -10 58 -9
29 0 46 3 39 6 -6 2 -10 9 -6 14 3 5 0 9 -6 9 -7 0 -9 7 -6 16 4 10 -1 26 -11
37 -13 14 -13 18 -3 12 13 -8 13 -7 1 8 -7 9 -10 17 -5 17 5 0 1 5 -8 11 -10
5 -18 15 -18 22 0 7 4 6 11 -3 8 -11 9 -9 4 10 -4 14 -14 31 -23 38 -12 9 -12
12 -2 12 9 0 8 6 -6 22 -10 12 -13 18 -6 14 6 -4 12 -2 12 3 0 6 -8 11 -17 11
-15 0 -15 2 -4 9 12 8 12 12 2 25 -7 8 -9 21 -5 27 5 9 2 10 -11 5 -15 -5 -16
-4 -6 8 25 30 -58 64 -95 38z"/>
<path d="M9038 4348 c-13 -13 -26 -16 -48 -12 -30 7 -30 7 -34 -38 -1 -7 -5
-16 -10 -19 -5 -4 0 -10 10 -13 20 -6 49 -56 33 -56 -5 0 -9 -4 -9 -10 0 -19
17 -10 28 16 7 14 8 23 3 19 -5 -3 -12 -1 -15 4 -7 10 23 20 43 13 9 -3 10 -6
2 -12 -16 -9 4 -60 24 -60 21 0 19 -40 -2 -41 -10 -1 -21 -1 -25 0 -5 0 -8 -3
-8 -9 0 -5 -5 -10 -11 -10 -5 0 -7 5 -4 11 4 6 1 10 -6 8 -25 -3 -37 1 -53 16
-13 13 -16 13 -30 -1 -9 -8 -16 -12 -16 -7 0 5 5 14 12 21 8 8 8 12 1 12 -14
0 -34 -25 -26 -33 3 -4 0 -14 -7 -23 -11 -13 -11 -17 0 -24 10 -6 9 -9 -5 -11
-9 -2 -23 -21 -31 -44 -17 -49 -17 -55 -3 -55 6 0 8 7 5 16 -4 10 -2 13 6 8 8
-5 9 -2 5 9 -4 12 -1 17 11 18 10 0 12 3 5 6 -7 2 -13 10 -13 16 0 5 3 7 7 4
3 -4 15 1 26 10 11 10 17 13 14 6 -4 -6 0 -19 9 -27 8 -9 11 -16 5 -16 -5 0
-15 8 -20 18 -9 14 -10 11 -11 -18 0 -27 3 -32 11 -20 8 12 10 12 7 1 -2 -8
-11 -15 -20 -17 -11 -1 -15 3 -11 14 4 15 3 15 -6 2 -6 -8 -11 -18 -11 -21 0
-12 50 -6 61 7 6 8 9 14 5 14 -3 0 2 9 11 20 12 14 30 20 59 20 48 0 76 8 69
20 -3 4 2 23 10 41 8 21 14 27 15 16 0 -10 -5 -28 -11 -39 -10 -18 -9 -20 7
-14 16 5 17 4 4 -6 -18 -15 -20 -35 -5 -46 6 -4 10 -14 10 -22 0 -11 13 -16
50 -18 33 -2 45 1 36 7 -7 5 -10 14 -7 20 4 6 0 11 -8 11 -9 0 -16 5 -16 10 0
6 5 10 11 10 5 0 7 5 3 12 -5 8 -12 2 -20 -17 -8 -18 -13 -23 -14 -13 0 12 -5
15 -17 11 -11 -4 -14 -3 -9 6 5 7 14 10 22 7 8 -3 14 1 14 8 0 8 6 17 13 19 9
4 9 6 -1 6 -7 1 -10 6 -6 13 4 7 3 8 -5 4 -6 -4 -9 -11 -6 -16 3 -5 0 -12 -6
-16 -7 -4 -9 -3 -5 4 3 6 -2 16 -11 22 -17 11 -17 11 0 6 14 -4 16 -1 13 19
-3 14 -1 23 5 20 5 -4 9 -2 9 3 0 12 -27 23 -33 14 -2 -4 -2 -1 -1 6 2 6 -1
12 -5 12 -5 0 -12 -6 -14 -12 -4 -8 -6 -7 -6 4 -1 9 -4 23 -7 32 -3 9 -1 16 5
16 6 0 11 -6 11 -14 0 -8 7 -17 16 -20 26 -10 28 -7 8 16 -10 12 -13 18 -7 14
18 -10 5 26 -15 42 -13 10 -13 12 -1 12 9 1 6 7 -10 20 -17 15 -19 20 -8 20
13 0 14 5 6 28 -11 33 -27 36 -51 10z"/>
<path d="M9410 4360 c-13 -9 -13 -11 0 -19 12 -9 12 -11 -3 -17 -15 -5 -17
-22 -17 -136 0 -109 2 -129 14 -119 11 9 12 6 8 -14 -2 -14 -8 -23 -12 -20 -9
6 -20 -31 -12 -39 9 -10 34 -7 28 3 -6 10 12 71 26 86 5 5 2 -10 -7 -34 -8
-24 -12 -47 -9 -52 3 -5 25 -9 50 -9 34 0 46 4 50 18 11 35 21 46 53 59 19 8
30 9 26 3 -3 -5 -2 -10 4 -10 5 0 11 4 13 9 2 5 10 2 18 -7 13 -14 12 -15 -3
-9 -11 4 -16 3 -12 -3 9 -14 -8 -13 -22 1 -17 17 -63 -15 -63 -43 0 -24 7 -20
25 14 12 23 17 25 46 13 21 -8 68 32 72 62 2 12 6 26 10 29 12 12 8 26 -5 18
-9 -5 -9 -2 1 9 20 25 9 119 -19 154 -20 25 -22 25 -16 6 5 -14 3 -23 -3 -23
-6 0 -11 8 -11 18 -1 19 -30 63 -30 44 0 -7 -5 -12 -11 -12 -5 0 -8 4 -4 9 10
18 -34 23 -57 7 -16 -11 -18 -16 -8 -17 8 -1 24 -2 35 -3 16 -1 20 -7 18 -33
-1 -18 2 -33 7 -33 5 0 16 -3 25 -7 16 -6 16 -4 2 18 -11 16 -13 29 -7 39 8
12 10 11 10 -5 0 -30 20 -48 37 -33 7 6 16 9 19 6 3 -3 -11 -15 -31 -26 -19
-12 -35 -17 -35 -12 0 6 -3 10 -7 10 -5 0 -8 -39 -8 -87 0 -62 -4 -87 -13 -89
-7 -1 -8 0 -2 3 5 2 10 10 10 16 0 6 -10 1 -22 -10 -18 -15 -33 -19 -65 -15
-38 4 -41 6 -33 22 13 25 13 27 -6 34 -12 5 -14 1 -9 -17 5 -19 4 -20 -5 -4
-13 20 -2 42 20 42 11 0 16 13 18 48 2 27 -1 47 -5 44 -5 -3 -17 2 -28 10 -20
15 -20 15 1 9 15 -5 24 -2 28 9 4 12 0 14 -22 10 -26 -5 -26 -5 -3 5 17 7 27
7 37 -1 14 -11 34 -4 34 12 0 6 -5 7 -12 3 -7 -4 -8 -3 -4 5 6 9 11 9 22 0 7
-6 11 -15 8 -20 -3 -5 1 -9 9 -9 28 0 26 14 -5 37 -35 25 -103 32 -111 11 -3
-7 -5 -4 -4 7 1 17 7 20 40 16 21 -2 44 2 50 8 14 14 -91 15 -113 1z"/>
<path d="M9836 4363 c-4 -5 -19 -8 -33 -8 -15 0 -28 -6 -31 -14 -3 -9 0 -11 9
-6 11 6 12 5 2 -6 -17 -17 -18 -166 -1 -171 7 -3 5 -13 -7 -31 -10 -15 -15
-30 -12 -34 4 -3 9 2 13 11 3 9 10 13 15 10 11 -6 12 -34 2 -33 -27 4 -33 -4
-33 -46 l0 -45 120 0 120 0 0 45 0 45 -77 1 c-43 1 -82 1 -86 0 -13 -2 -19 27
-9 44 8 16 9 16 15 1 4 -10 3 -15 -3 -11 -6 3 -10 -1 -10 -9 0 -10 6 -13 15
-9 12 4 14 15 10 47 -3 30 -2 35 5 19 7 -16 17 -21 44 -20 20 1 36 6 36 11 0
6 5 4 10 -4 6 -9 10 -11 10 -3 0 7 6 10 14 7 21 -8 15 30 -6 38 -10 4 -18 13
-18 20 0 9 3 9 12 0 17 -17 33 -15 18 3 -14 17 -46 20 -55 5 -3 -5 -1 -10 4
-10 6 0 11 -6 11 -14 0 -8 8 -17 18 -19 13 -4 12 -5 -5 -6 -12 0 -23 -4 -26
-8 -2 -5 -2 -2 -1 5 5 18 -17 62 -31 62 -6 0 -16 -5 -23 -12 -9 -9 -12 -9 -13
3 -1 7 -1 17 0 22 0 4 -3 7 -9 7 -6 0 -6 9 -1 22 8 21 13 23 80 20 71 -4 71
-4 71 22 0 26 -1 26 -81 26 -79 0 -80 -1 -74 -22 5 -18 4 -20 -4 -8 -24 34
-13 40 74 40 50 0 85 4 85 10 0 12 -153 14 -164 3z"/>
<path d="M7317 4348 c-10 -5 -15 -14 -11 -20 4 -7 10 -5 16 3 7 10 8 8 3 -6
-4 -11 -8 -26 -8 -32 0 -17 -5 -16 -23 2 -9 8 -20 15 -25 15 -16 0 -10 -19 11
-30 37 -20 -2 -96 -46 -87 -17 3 -21 -1 -22 -25 0 -15 3 -28 7 -28 4 0 14 -11
21 -25 7 -14 17 -25 22 -25 5 0 7 4 4 9 -9 14 23 6 37 -9 10 -12 9 -12 -5 -1
-14 10 -18 9 -27 -7 -6 -11 -7 -22 -4 -26 4 -4 8 -16 10 -28 2 -12 6 -24 8
-27 10 -9 105 -8 105 1 0 6 -7 7 -16 4 -14 -5 -15 -4 -4 9 9 11 9 15 1 15 -7
0 -10 3 -8 8 7 11 -12 54 -22 48 -4 -3 -17 4 -27 16 -11 12 -14 18 -8 15 15
-9 26 17 13 30 -6 6 -3 18 10 34 11 13 20 19 21 12 0 -6 -4 -15 -10 -18 -5 -3
-10 -10 -10 -16 0 -5 8 -1 18 9 10 9 17 19 15 21 -1 2 2 10 8 17 6 8 9 20 6
28 -3 7 0 19 6 25 10 10 -1 16 -25 12 -15 -2 -8 18 7 21 13 2 12 8 -7 35 -19
25 -27 29 -41 21z"/>
<path d="M8391 4331 c-11 -7 -12 -24 -7 -74 4 -41 3 -68 -4 -72 -6 -3 -10 -46
-10 -98 l0 -92 40 -2 c23 -1 38 2 35 8 -4 5 -1 9 5 9 7 0 10 7 7 15 -4 8 -2
17 3 20 7 4 6 13 0 25 -13 24 -13 33 0 25 23 -14 8 16 -22 44 -27 25 -30 33
-20 43 11 11 12 9 6 -6 -6 -16 -4 -18 10 -13 13 5 19 1 23 -13 3 -11 9 -18 13
-15 4 3 13 -2 20 -10 10 -12 15 -12 36 1 13 9 31 14 39 10 17 -6 20 -26 4 -26
-5 0 -7 5 -4 10 3 6 1 10 -4 10 -6 0 -11 -4 -11 -10 0 -5 -3 -9 -7 -8 -5 0
-16 -2 -25 -6 -18 -8 -15 -26 3 -26 6 0 7 5 4 10 -3 6 -1 10 4 10 6 0 11 -6
11 -14 0 -8 8 -16 18 -18 14 -3 13 -5 -6 -10 -12 -3 -20 -2 -16 3 3 5 0 9 -5
9 -13 0 -14 -10 -2 -29 6 -9 10 -10 16 -2 4 7 14 11 23 10 24 -3 53 11 46 22
-3 5 -10 9 -15 9 -6 0 -7 -4 -4 -10 3 -5 2 -10 -4 -10 -5 0 -9 9 -8 19 0 11 5
17 9 15 4 -3 3 7 -3 22 -9 24 -7 30 12 45 20 15 21 16 3 24 -11 5 -22 7 -26 7
-5 -1 -8 4 -8 11 0 8 -4 7 -11 -3 -9 -13 -10 -12 -5 3 6 20 -2 21 -27 3 -14
-11 -16 -19 -7 -41 7 -20 7 -26 -2 -23 -6 2 -13 15 -15 28 -4 27 -10 35 -26
35 -7 0 -11 9 -10 18 0 11 -4 16 -11 14 -7 -3 -19 -1 -27 5 -11 8 -10 9 4 4 9
-3 17 -1 17 5 0 6 5 7 10 4 21 -13 9 15 -17 40 -15 14 -22 25 -15 25 6 0 12
-6 12 -12 0 -9 4 -8 10 2 8 13 10 12 10 -3 0 -15 3 -16 20 -7 15 8 20 8 20 -1
0 -8 5 -7 17 2 12 10 14 10 9 1 -4 -7 0 -15 11 -19 10 -3 27 -15 38 -27 19
-20 65 -33 65 -18 0 4 -15 14 -33 22 -23 11 -33 23 -37 45 l-5 30 -80 3 c-44
1 -86 -2 -94 -7z"/>
<path d="M8719 4338 c-14 -26 -22 -244 -11 -293 5 -25 6 -42 1 -39 -5 3 -9 1
-9 -5 0 -6 19 -9 43 -8 41 3 42 4 45 42 3 29 -1 43 -14 52 -16 11 -16 13 -2
13 9 0 20 5 24 12 5 8 2 9 -9 5 -10 -3 -17 -2 -17 3 0 6 6 10 14 10 11 0 14
23 15 105 l2 105 -41 0 c-22 0 -41 -1 -41 -2z"/>
<path d="M6185 4270 c-15 -23 -15 -42 -1 -37 9 4 12 -3 10 -20 -1 -14 4 -27
12 -30 8 -3 11 -10 7 -16 -4 -6 -1 -7 7 -2 10 6 9 11 -5 22 -11 7 -13 13 -7
13 7 0 12 5 12 11 0 5 -5 7 -12 3 -7 -5 -8 -3 -3 5 11 19 26 -1 27 -38 1 -29
18 -46 18 -18 0 7 5 5 10 -5 6 -10 19 -15 30 -13 11 2 20 1 21 -3 0 -4 2 -16
4 -26 2 -11 -1 -28 -6 -38 -6 -12 -6 -18 1 -18 5 0 10 4 10 8 0 5 7 9 15 9 8
0 12 -4 9 -9 -8 -12 10 -10 26 5 12 10 12 9 1 -6 -9 -11 -21 -15 -35 -12 -19
5 -19 5 -5 -7 14 -11 14 -15 2 -26 -15 -15 -53 -7 -53 11 0 6 -7 1 -16 -11 -8
-12 -19 -20 -24 -17 -5 3 1 16 13 28 17 17 24 19 30 9 5 -7 13 -9 19 -6 7 4 8
2 4 -4 -4 -7 -3 -12 3 -12 5 0 12 4 15 9 7 11 -41 44 -57 38 -7 -2 -25 5 -41
16 -27 19 -28 19 -18 1 5 -10 8 -36 7 -56 -2 -21 1 -36 5 -33 5 3 11 1 15 -5
8 -13 85 -13 85 1 0 5 5 7 10 4 6 -3 10 1 10 9 0 9 9 16 20 16 11 0 20 5 20
11 0 5 -4 7 -10 4 -16 -10 -11 1 7 16 11 10 14 10 9 2 -4 -7 -2 -13 3 -13 6 0
11 6 12 13 1 6 3 31 5 54 3 34 -1 48 -23 73 -14 17 -32 29 -39 26 -7 -3 -24 4
-39 16 -25 19 -55 19 -55 -1 0 -13 -46 30 -52 49 -4 12 -5 12 -13 0z"/>
<path d="M8306 3742 c-42 -66 -76 -122 -76 -125 0 -4 40 -7 88 -7 l88 0 95
108 c52 59 100 115 108 125 13 16 6 17 -107 17 l-120 0 -76 -118z"/>
<path d="M10274 3529 c-110 -14 -200 -78 -249 -176 -26 -52 -29 -68 -30 -153
0 -79 4 -102 22 -136 35 -65 90 -106 198 -144 112 -40 145 -65 145 -110 0 -50
-38 -80 -100 -80 -58 0 -95 16 -149 65 l-38 35 -71 -93 -71 -92 41 -42 c74
-75 215 -121 334 -108 118 12 211 75 266 178 20 36 23 57 23 153 0 106 -1 113
-30 160 -39 63 -99 103 -205 137 -114 36 -130 48 -130 98 0 34 5 42 33 59 56
34 121 21 188 -38 l35 -30 72 91 72 91 -32 33 c-70 73 -210 117 -324 102z"/>
<path d="M12500 3528 c-139 -16 -279 -119 -348 -258 -93 -185 -79 -433 34
-597 152 -220 475 -242 673 -44 102 103 151 235 151 409 0 160 -47 281 -146
378 -91 88 -221 128 -364 112z m158 -291 c139 -92 121 -381 -28 -457 -147 -75
-295 62 -277 256 10 102 56 178 132 219 44 23 123 15 173 -18z"/>
<path d="M6180 3468 c0 -24 -3 -80 -7 -125 l-6 -83 118 0 117 0 -6 -107 c-3
-60 -9 -226 -12 -370 l-6 -263 124 0 125 0 9 368 9 367 113 3 112 3 0 42 c0
23 3 79 7 125 l6 82 -352 0 -351 0 0 -42z"/>
<path d="M7057 3303 c-4 -115 -10 -337 -13 -495 l-7 -288 121 0 122 0 0 78 c0
42 3 121 7 175 6 97 6 97 33 97 24 0 31 -11 100 -175 l73 -175 134 0 c130 0
134 1 128 20 -3 11 -44 99 -91 195 -46 97 -84 179 -83 183 0 4 19 21 42 37 27
20 53 52 72 90 28 55 30 66 30 170 0 107 -1 114 -30 160 -68 109 -150 135
-441 135 l-191 0 -6 -207z m404 -42 c20 -16 24 -29 24 -70 0 -42 -5 -55 -27
-78 -24 -24 -38 -28 -99 -31 -65 -4 -71 -3 -66 13 4 9 7 55 7 101 l0 84 69 0
c53 0 74 -4 92 -19z"/>
<path d="M8010 3024 c-102 -267 -187 -490 -188 -495 -3 -6 48 -8 129 -7 l132
3 30 88 29 87 155 -2 156 -3 25 -87 25 -88 133 0 c74 0 134 1 134 3 0 1 -72
223 -159 492 l-158 490 -129 3 -129 2 -185 -486z m380 -101 c0 -10 -24 -13
-90 -13 -49 0 -90 2 -90 4 0 4 81 236 96 276 5 13 83 -235 84 -267z"/>
<path d="M8969 3423 c0 -48 -6 -271 -12 -496 l-12 -407 118 0 117 0 1 83 c1
45 4 171 8 279 l6 198 132 -278 132 -277 134 -3 135 -3 6 143 c3 79 8 251 11
383 3 132 8 291 11 353 l6 112 -121 0 -121 0 -1 -147 c-1 -82 -4 -208 -8 -281
l-6 -134 -130 279 -131 278 -137 3 -137 3 -1 -88z"/>
<path d="M10857 3333 c-4 -98 -9 -299 -12 -448 -3 -148 -8 -291 -11 -317 l-5
-48 124 0 124 0 7 148 c3 81 8 262 11 402 3 140 8 297 11 348 l6 92 -125 0
-124 0 -6 -177z"/>
<path d="M11290 3385 l0 -125 111 0 111 0 -6 -222 c-3 -123 -9 -289 -12 -370
l-6 -148 125 0 125 0 6 258 c3 141 9 308 12 370 l6 112 108 0 108 0 6 31 c3
17 6 74 6 125 l0 94 -350 0 -350 0 0 -125z"/>
<path d="M13590 3505 c0 -2 65 -137 144 -300 l144 -296 -5 -194 -6 -195 120 0
c117 0 121 1 127 23 3 12 6 98 6 190 l0 168 165 300 c91 165 165 302 165 305
0 2 -62 4 -138 4 l-138 0 -74 -167 c-40 -93 -76 -172 -80 -176 -4 -4 -38 71
-75 168 l-68 175 -144 0 c-78 0 -143 -2 -143 -5z"/>
<path d="M9903 2226 c-95 -31 -179 -111 -210 -199 -26 -75 -24 -199 4 -252 36
-68 97 -113 198 -145 83 -26 125 -51 132 -79 11 -40 4 -64 -23 -88 -48 -44
-138 -26 -212 41 l-40 36 -72 -91 -72 -91 24 -25 c126 -136 382 -165 520 -60
121 92 164 285 93 415 -35 64 -88 102 -200 141 -117 42 -135 54 -135 92 0 45
16 67 58 80 51 15 107 -1 157 -44 l39 -34 68 81 c37 45 67 88 68 98 0 23 -54
66 -128 101 -75 35 -199 46 -269 23z"/>
<path d="M11573 2225 c-78 -21 -124 -48 -191 -110 -108 -99 -165 -243 -165
-415 0 -213 92 -373 261 -453 62 -30 75 -32 172 -32 128 0 199 23 286 93 118
96 183 234 191 407 8 170 -32 289 -133 395 -107 113 -267 156 -421 115z m206
-278 c103 -69 124 -268 40 -391 -89 -130 -270 -103 -329 49 -18 44 -15 172 4
224 50 136 178 189 285 118z"/>
<path d="M6190 2143 c0 -38 -3 -92 -6 -120 l-7 -53 117 0 117 0 -5 -42 c-3
-24 -8 -142 -11 -263 -3 -121 -8 -268 -11 -327 l-7 -108 125 0 125 0 7 223 c3
122 9 288 13 370 l6 147 113 0 114 0 0 120 0 120 -345 0 -345 0 0 -67z"/>
<path d="M6990 2143 c0 -37 -7 -241 -15 -453 -8 -212 -15 -402 -15 -422 l0
-38 119 0 118 0 7 92 c3 50 6 129 6 175 l0 84 31 -3 c30 -3 33 -8 102 -175
l72 -173 252 0 252 0 19 53 c11 28 25 69 32 90 l12 37 156 -2 156 -3 22 -84
c13 -46 25 -85 27 -88 2 -2 62 -2 134 -1 l129 3 -123 390 c-68 215 -137 434
-154 488 l-30 97 -129 0 -128 0 -70 -177 c-38 -98 -120 -309 -183 -470 -62
-161 -117 -289 -121 -285 -10 10 -170 354 -166 356 134 79 191 267 130 427
-17 43 -62 89 -116 117 -51 27 -53 27 -288 30 l-238 4 0 -69z m394 -174 c20
-16 26 -29 26 -60 0 -83 -43 -119 -141 -119 l-49 0 0 48 c0 26 3 71 6 100 l7
52 62 0 c48 0 68 -5 89 -21z m814 -206 l39 -143 -93 0 -93 0 52 150 c29 82 53
146 54 142 1 -4 20 -71 41 -149z"/>
<path d="M8740 2203 c0 -4 -7 -181 -15 -393 -8 -212 -15 -429 -15 -482 l0 -98
115 0 115 0 1 93 c1 50 4 177 8 281 l6 190 131 -280 131 -279 131 -3 131 -3 5
33 c3 18 10 204 16 413 6 209 13 415 16 458 l6 77 -121 0 -121 0 -1 -142 c-1
-79 -4 -203 -8 -277 l-6 -135 -126 275 -126 274 -137 3 c-75 1 -136 -1 -136
-5z"/>
<path d="M10452 1828 c-7 -211 -15 -431 -19 -490 l-6 -108 127 0 126 0 0 134
c0 73 3 147 6 164 l6 30 102 4 c123 5 186 29 247 95 68 74 84 120 84 248 0 99
-3 115 -26 160 -14 28 -45 65 -68 82 -70 55 -119 63 -356 63 l-211 0 -12 -382z
m401 142 c36 -29 44 -79 21 -127 -23 -47 -72 -73 -138 -73 -45 0 -48 1 -42 23
3 12 6 61 6 110 l0 87 64 0 c49 0 69 -5 89 -20z"/>
<path d="M12306 2138 c-3 -40 -10 -233 -16 -428 -6 -195 -13 -383 -15 -418
l-6 -63 123 3 123 3 6 160 c4 88 7 166 8 173 0 6 13 12 29 12 26 0 30 -9 96
-168 38 -92 72 -171 76 -175 4 -4 65 -6 137 -5 l131 3 -93 200 -93 199 26 17
c43 26 79 70 104 124 32 71 33 231 2 290 -30 55 -70 94 -124 119 -41 19 -66
21 -277 24 l-231 3 -6 -73z m384 -161 c37 -19 48 -74 24 -123 -24 -49 -54 -64
-128 -64 -49 0 -57 2 -52 16 3 9 6 54 6 100 l0 84 63 0 c34 0 73 -6 87 -13z"/>
<path d="M13026 2188 c-3 -13 -6 -67 -6 -120 l0 -98 111 0 112 0 -6 -147 c-4
-82 -10 -248 -13 -370 l-7 -223 120 0 120 0 7 113 c3 61 8 213 11 337 3 124 8
240 11 258 l5 32 109 0 110 0 0 43 c0 24 3 78 6 120 l7 77 -345 0 -346 0 -6
-22z"/>
<path d="M13826 2128 c-3 -46 -10 -240 -16 -433 -6 -192 -12 -376 -15 -407
l-5 -58 305 0 305 0 0 84 c0 46 3 98 6 115 l7 31 -187 0 -186 0 0 58 c0 109
-11 102 170 102 l157 0 7 53 c3 28 6 78 6 110 l0 57 -166 0 -166 0 6 23 c3 12
6 46 6 75 l0 52 169 0 c145 0 170 2 175 16 3 9 6 58 6 110 l0 94 -289 0 -289
0 -6 -82z"/>
<path d="M11948 1055 c-27 -41 -48 -77 -48 -80 0 -3 24 -5 54 -5 l54 0 72 80
72 80 -78 0 -79 0 -47 -75z"/>
<path d="M7763 899 c-77 -30 -147 -110 -174 -201 -27 -89 -23 -198 11 -276 41
-95 145 -162 250 -162 55 0 137 28 170 58 l30 27 -43 66 -43 66 -28 -23 c-19
-17 -39 -24 -67 -24 -85 0 -129 53 -129 154 0 140 107 216 203 145 28 -20 29
-20 42 -2 7 10 29 38 49 63 l36 45 -32 27 c-68 58 -180 73 -275 37z"/>
<path d="M6256 728 c-3 -95 -9 -235 -12 -310 l-7 -138 136 0 c164 0 217 14
287 77 63 57 92 124 98 229 6 112 -15 181 -73 239 -61 61 -113 75 -286 75
l-136 0 -7 -172z m263 14 c58 -29 76 -63 75 -140 -1 -114 -51 -172 -148 -172
l-49 0 7 92 c3 50 6 124 6 165 l0 73 38 0 c20 0 52 -8 71 -18z"/>
<path d="M6866 643 c-4 -142 -9 -282 -13 -310 l-5 -53 196 0 196 0 0 70 0 70
-115 0 -115 0 0 55 0 55 104 0 103 0 7 38 c3 20 6 49 6 65 l0 27 -105 0 -105
0 0 50 0 50 109 0 108 0 7 38 c3 20 6 52 6 70 l0 32 -189 0 -188 0 -7 -257z"/>
<path d="M8146 863 c-3 -21 -7 -126 -8 -233 -3 -221 5 -255 75 -317 119 -105
330 -47 381 104 9 25 18 95 21 155 3 59 7 158 10 218 l5 110 -78 0 -79 0 -6
-127 c-4 -71 -7 -159 -7 -196 0 -83 -20 -130 -61 -147 -22 -10 -35 -10 -58 -1
-49 21 -53 44 -45 268 l7 203 -76 0 -75 0 -6 -37z"/>
<path d="M8746 643 c-4 -142 -9 -282 -13 -310 l-5 -53 81 0 80 0 3 108 c3 98
5 107 22 107 15 0 29 -24 64 -107 l45 -108 83 0 c46 0 84 3 84 6 0 3 -25 58
-55 124 l-55 118 39 39 c93 92 77 257 -29 311 -40 20 -59 22 -191 22 l-146 0
-7 -257z"/>
<path d="M9275 691 c-8 -237 -5 -272 35 -335 50 -78 153 -112 260 -86 40 10
65 24 100 59 68 66 78 106 86 362 l7 209 -75 0 -75 0 -7 -52 c-3 -29 -6 -102
-7 -163 -1 -163 -10 -213 -44 -243 -34 -29 -79 -25 -109 11 -17 20 -18 36 -13
235 l5 212 -78 0 -78 0 -7 -209z"/>
<path d="M9886 745 c-3 -85 -9 -225 -12 -310 l-7 -155 77 0 76 0 0 63 c0 35 3
120 7 188 l7 124 12 -50 c7 -27 27 -112 45 -187 l32 -138 58 0 c55 0 58 1 64
27 3 16 30 102 60 193 47 144 53 158 50 110 -3 -30 -7 -117 -10 -192 l-6 -138
79 0 79 0 7 258 c4 141 9 281 12 310 l6 53 -108 -3 -108 -3 -51 -165 c-29 -91
-54 -172 -56 -180 -3 -8 -26 66 -50 165 l-45 180 -106 3 -105 3 -7 -156z"/>
<path d="M10785 858 c-19 -47 -163 -417 -201 -515 l-24 -63 83 0 84 0 19 55
18 56 100 -3 99 -3 15 -52 15 -53 84 0 c64 0 84 3 81 12 -3 7 -47 147 -98 311
l-93 297 -83 0 -82 0 -17 -42z"/>
<path d="M11246 828 c-3 -40 -9 -180 -12 -310 l-7 -238 77 0 76 0 0 177 c0 97
4 173 8 168 5 -6 44 -85 87 -177 l78 -168 83 0 c70 0 83 3 88 18 2 9 7 136 11
282 3 146 8 277 11 293 l6 27 -81 0 -81 0 -2 -176 -3 -177 -80 174 -81 174
-86 3 -86 3 -6 -73z"/>
<path d="M11877 858 c-4 -24 -9 -163 -13 -310 l-7 -268 75 0 75 0 6 88 c4 48
10 187 13 310 l7 222 -76 0 -75 0 -5 -42z"/>
</g>
</svg>
